<?xml version="1.0" encoding="UTF-8"?>
<svg id="Capa_2" data-name="Capa 2" xmlns="http://www.w3.org/2000/svg" viewBox="0 0 441.89 296.38">
  <defs>
    <style>
      .cls-1 {
        fill: #343333;
      }
    </style>
  </defs>
  <g id="Final">
    <g>
      <path id="v_der" data-name="v der" class="cls-1" d="M218.35,296.38l184.65-164.34c9.21-8.55,21.18-31.06,33.7-62l-218.35,194.16v32.18Z"/>
      <path id="v_der-2" data-name="v der" class="cls-1" d="M218.35,296.38L33.7,132.04C24.49,123.48,12.52,100.98,0,70.04l218.35,194.16v32.18Z"/>
    </g>
    <path class="cls-1" d="M35.85,44.49h21.12s330.36-.23,330.36-.23c12.84-.27,47.54-38.17,54.55-44.26L109.99,.02c-26.61,.31-45.22,21.61-74.14,44.47Z"/>
    <path class="cls-1" d="M96.81,118.58h12.63s197.59-.22,197.59-.22c7.68-.25,28.43-36.11,32.63-41.88l-198.5,.02c-15.91,.29-27.05,20.45-44.34,42.07Z"/>
    <path class="cls-1" d="M129.24,164.47h4.65s72.66-.11,72.66-.11c2.82-.13,10.46-18.78,12-21.78h-73c-5.85,.16-9.95,10.64-16.31,21.89Z"/>
  </g>
</svg>