<svg width="200" height="200" viewBox="0 0 200 200" fill="none" xmlns="http://www.w3.org/2000/svg">
<path d="M45.1681 10.7006C45.9074 10.7006 46.5864 11.1085 46.9337 11.7612L108.057 126.644C108.807 128.053 110.823 128.059 111.582 126.656L142.64 69.1982C143.553 67.5103 146.088 67.9511 146.377 69.8478L164.235 186.998C164.42 188.209 163.483 189.299 162.258 189.299H157.132C156.144 189.299 155.304 188.578 155.155 187.601L141.537 98.3836C141.248 96.4868 138.713 96.0466 137.801 97.7348L111.582 146.272C110.823 147.676 108.806 147.67 108.057 146.261L37.4877 13.6401C36.7788 12.308 37.7443 10.7006 39.2533 10.7006H45.1681ZM152.813 11.767C153.159 11.1111 153.84 10.7006 154.582 10.7006H171.273C172.262 10.7006 173.103 11.4236 173.251 12.4016L199.652 187C199.835 188.21 198.899 189.299 197.675 189.299H174.56C173.649 189.299 172.865 188.656 172.686 187.763L172.255 185.606C172.242 185.539 172.292 185.478 172.36 185.478V185.478C172.425 185.478 172.475 185.419 172.465 185.355L152.202 52.627C152.137 52.2033 152.21 51.7699 152.41 51.3909L156.392 43.8534C157.294 42.1462 159.852 42.5816 160.139 44.4909L161.529 53.758L180.631 178.176C180.781 179.152 181.621 179.873 182.608 179.873H186.982C188.203 179.873 189.139 178.788 188.96 177.58L184.968 150.573L165.86 26.242L165.315 21.8793C165.189 20.8785 164.339 20.1274 163.33 20.1274H160.173C159.438 20.1274 158.763 20.5299 158.414 21.1758L150.573 35.6688L149.809 37.4522L127.389 79.2357L112.302 107.809C111.559 109.215 109.552 109.235 108.783 107.843L105.752 102.358C105.422 101.762 105.419 101.039 105.742 100.44L117.197 79.2357L152.813 11.767ZM108.28 164.092C109.041 165.499 111.064 165.487 111.809 164.072L134.702 120.575C134.966 120.074 135.716 120.204 135.796 120.764V120.764L137.736 133.618C137.8 134.04 137.727 134.471 137.528 134.849L111.826 183.66C111.077 185.082 109.043 185.085 108.29 183.667L34.9313 45.5807C34.0281 43.8806 31.4798 44.3131 31.1882 46.216L11.0537 177.57C10.868 178.781 11.8052 179.873 13.0306 179.873H34.9686C35.9572 179.873 36.7975 179.15 36.9459 178.173L44.7003 127.085C44.9079 125.718 46.7378 125.404 47.3885 126.624V126.624L52.4208 135.97C52.6272 136.353 52.7029 136.793 52.6364 137.224L44.8479 187.605C44.6972 188.58 43.858 189.299 42.8714 189.299H2.32666C1.10245 189.299 0.165523 188.209 0.349327 186.999L26.5603 14.4025C26.7108 13.4115 28.0193 13.1532 28.535 14.0127V14.0127L101.656 151.847L108.28 164.092ZM29.3097 171.558C29.1571 172.531 28.3188 173.248 27.3338 173.248H22.2077C20.9806 173.248 20.0429 172.154 20.2314 170.941L35.511 72.6817C35.8063 70.7824 38.3496 70.3526 39.2527 72.0494L100.091 186.36C100.801 187.692 99.8351 189.299 98.326 189.299H92.4125C91.6727 189.299 90.9933 188.891 90.6462 188.238L44.0868 100.582C43.1853 98.8852 40.6424 99.3121 40.3446 101.211L29.3097 171.558Z" fill="#F5F5F5"/>
</svg>
